<svg xmlns="http://www.w3.org/2000/svg" viewBox="0 0 700 520"><rect width="700" height="520" fill="#eee5f7"/><circle cx="562" cy="96" r="75" fill="#fff" opacity=".56"/><path d="M0 387q180-34 350 0t350 0v133H0Z" fill="#d9b4b2"/><path d="M184 164h251a33 33 0 0 1 33 33v110a33 33 0 0 1-33 33H317l-55 55v-55h-78a33 33 0 0 1-33-33V197a33 33 0 0 1 33-33Z" fill="#fffaf0" stroke="#6f5a83" stroke-width="10"/><circle cx="244" cy="252" r="13" fill="#a48eb7"/><circle cx="309" cy="252" r="13" fill="#a48eb7"/><circle cx="374" cy="252" r="13" fill="#a48eb7"/><path d="M491 193h70m-54 37h66" stroke="#e18991" stroke-width="15" stroke-linecap="round"/></svg>